<svg width="115" height="43" viewBox="0 0 115 43" fill="none" xmlns="http://www.w3.org/2000/svg">
<g filter="url(#filter0_d_203_88)">
<path d="M4.83398 22.1719V0.341874H8.16398V22.1719H4.83398ZM9.27398 22.1719V0.341874H10.384V22.1719H9.27398ZM11.494 22.1719V0.341874H12.604V22.1719H11.494ZM15.934 22.1719V0.341874H19.264V22.1719H15.934ZM20.374 22.1719V0.341874H21.484V22.1719H20.374ZM10.976 25.3909H12.086V25.5019C12.0367 25.5512 11.9997 25.6129 11.975 25.6869C11.975 25.7362 11.975 25.8472 11.975 26.0199V29.0539H15.305V25.3909H16.452V25.5019C16.4027 25.5512 16.3657 25.6129 16.341 25.6869C16.341 25.7362 16.341 25.8472 16.341 26.0199V33.9749H15.305V29.9049H11.975V33.9749H10.976V25.3909ZM22.6113 22.1719V0.341874H25.9413V22.1719H22.6113ZM27.0513 22.1719V0.341874H28.1613V22.1719H27.0513ZM29.2713 22.1719V0.341874H30.3813V22.1719H29.2713ZM33.7113 22.1719V0.341874H34.8213V22.1719H33.7113ZM35.9313 22.1719V0.341874H39.2613V22.1719H35.9313ZM32.8603 31.4589H30.0853L29.2343 33.9749H28.2723L31.4173 25.2429H31.5283L34.7103 33.9749H33.7113L32.8603 31.4589ZM32.6013 30.7189L31.4913 27.4629L30.3443 30.7189H32.6013ZM40.3887 22.1719V0.341874H41.4987V22.1719H40.3887ZM44.8287 22.1719V0.341874H48.1587V22.1719H44.8287ZM49.2687 22.1719V0.341874H50.3787V22.1719H49.2687ZM51.4887 22.1719V0.341874H52.5987V22.1719H51.4887ZM53.7087 22.1719V0.341874H57.0387V22.1719H53.7087ZM46.1607 25.3909H47.1597L49.3797 31.9769L51.4517 25.3909H52.4137L49.5277 34.0119H49.0837L46.1607 25.3909ZM58.166 22.1719V0.341874H61.496V22.1719H58.166ZM62.606 22.1719V0.341874H63.716V22.1719H62.606ZM64.826 22.1719V0.341874H65.936V22.1719H64.826ZM69.266 22.1719V0.341874H70.376V22.1719H69.266ZM71.486 22.1719V0.341874H74.816V22.1719H71.486ZM68.415 31.4589H65.64L64.789 33.9749H63.827L66.972 25.2429H67.083L70.265 33.9749H69.266L68.415 31.4589ZM68.156 30.7189L67.046 27.4629L65.899 30.7189H68.156ZM75.9434 22.1719V0.341874H77.0534V22.1719H75.9434ZM78.1634 22.1719V0.341874H79.2734V22.1719H78.1634ZM80.3834 22.1719V0.341874H83.7134V22.1719H80.3834ZM84.8234 22.1719V0.341874H85.9334V22.1719H84.8234ZM89.2634 22.1719V0.341874H92.5934V22.1719H89.2634ZM82.0854 25.3909H83.0104L86.5994 31.7549V25.3909H87.6724V25.5019C87.5984 25.5512 87.5614 25.6129 87.5614 25.6869C87.5367 25.7362 87.5244 25.8472 87.5244 26.0199V33.9749H86.7844L82.9734 27.2409V33.9749H82.0854V25.3909ZM93.7207 22.1719V0.341874H97.0507V22.1719H93.7207ZM98.1607 22.1719V0.341874H99.2707V22.1719H98.1607ZM100.381 22.1719V0.341874H101.491V22.1719H100.381ZM104.821 22.1719V0.341874H105.931V22.1719H104.821ZM107.041 22.1719V0.341874H110.371V22.1719H107.041ZM103.97 31.4589H101.195L100.344 33.9749H99.3817L102.527 25.2429H102.638L105.82 33.9749H104.821L103.97 31.4589ZM103.711 30.7189L102.601 27.4629L101.454 30.7189H103.711Z" fill="white"/>
</g>
<defs>
<filter id="filter0_d_203_88" x="0.833984" y="0.341797" width="113.537" height="41.6699" filterUnits="userSpaceOnUse" color-interpolation-filters="sRGB">
<feFlood flood-opacity="0" result="BackgroundImageFix"/>
<feColorMatrix in="SourceAlpha" type="matrix" values="0 0 0 0 0 0 0 0 0 0 0 0 0 0 0 0 0 0 127 0" result="hardAlpha"/>
<feOffset dy="4"/>
<feGaussianBlur stdDeviation="2"/>
<feComposite in2="hardAlpha" operator="out"/>
<feColorMatrix type="matrix" values="0 0 0 0 0 0 0 0 0 0 0 0 0 0 0 0 0 0 0.25 0"/>
<feBlend mode="normal" in2="BackgroundImageFix" result="effect1_dropShadow_203_88"/>
<feBlend mode="normal" in="SourceGraphic" in2="effect1_dropShadow_203_88" result="shape"/>
</filter>
</defs>
</svg>
